-------------------------------------------------
AVC (Advanced Video Coding) H264
High Efficiency Dolby Digital Stereo
-------------------------------------------------

IMDB 
http://www.imdb.com/title/tt0049833/

Based on the Holy Scriptures, with additional dialogue by several other hands, The Ten Commandments was the last film directed by Cecil B. DeMille. The story relates the life of Moses, from the time he was discovered in the bullrushes as an infant by the pharoah's daughter, to his long, hard struggle to free the Hebrews from their slavery at the hands of the Egyptians. Moses (Charlton Heston) starts out "in solid" as Pharoah's adopted son (and a whiz at designing pyramids, dispensing such construction-site advice as "Blood makes poor mortar"), but when he discovers his true Hebrew heritage, he attempts to make life easier for his people. Banished by his jealous half-brother Rameses (Yul Brynner), Moses returns fully bearded to Pharoah's court, warning that he's had a message from God and that the Egyptians had better free the Hebrews post-haste if they know what's good for them. Only after the Deadly Plagues have decimated Egypt does Rameses give in. As the Hebrews reach the Red Sea, they discover that Rameses has gone back on his word and plans to have them all killed. But Moses rescues his people with a little Divine legerdemain by parting the Seas. Later, Moses is again confronted by God on Mt. Sinai, who delivers unto him the Ten Commandments. Meanwhile, the Hebrews, led by the duplicitous Dathan (Edward G. Robinson), are forgetting their religion and behaving like libertines. "Where's your Moses now?" brays Dathan in the manner of a Lower East Side gangster. He soon finds out.

Charlton Heston, Yul Brynner and Anne Baxter



Ten Commandments (1956) DVDrip [18+Greek Subs] Omifast™ Media Info

Format                           : MPEG-4
File size                        : 756 MiB
Duration                         : 2h 10mn
Overall bit rate                 : 811 Kbps

Video
Format                           : AVC
Format/Info                      : Advanced Video Codec
Codec ID/Info                    : Advanced Video Coding
Duration                         : 2h 10mn
Bit rate mode                    : Variable
Bit rate                         : 728 Kbps
Maximum bit rate                 : 2 592 Kbps
Width                            : 720 pixels
Height                           : 480 pixels
Display aspect ratio             : 16:9
Frame rate mode                  : Constant
Frame rate                       : 25.000 fps
Standard                         : PAL
Stream size                      : 678 MiB (90%)
Language                         : English

Audio
ID                               : 2
Format                           : AAC
Format/Info                      : Advanced Audio Codec
Format profile                   : HE-AAC / LC
Codec ID                         : 40
Duration                         : 2h 10mn
Bit rate mode                    : Variable
Bit rate                         : 80.0 Kbps
Maximum bit rate                 : 94.2 Kbps
Channel(s)                       : 2 channels
Channel positions                : Front: L R
Sampling rate                    : 48.0 KHz / 24.0 KHz
Compression mode                 : Lossy
Stream size                      : 74.5 MiB (10%)
Language                         : English

